<mxfile host="app.diagrams.net" agent="Mozilla/5.0 (Windows NT 10.0; Win64; x64) AppleWebKit/537.36 (KHTML, like Gecko) Chrome/132.0.0.0 Safari/537.36" version="26.0.10">
  <diagram name="Страница — 1" id="2EIoxLi7xWRShz8KUhjq">
    <mxGraphModel dx="1744" dy="856" grid="1" gridSize="10" guides="1" tooltips="1" connect="1" arrows="1" fold="1" page="1" pageScale="1" pageWidth="827" pageHeight="1169" math="0" shadow="0">
      <root>
        <mxCell id="0" />
        <mxCell id="1" parent="0" />
        <mxCell id="TcImOwWDOge3_Hkxh-xN-5" value="" style="rounded=0;whiteSpace=wrap;html=1;" vertex="1" parent="1">
          <mxGeometry x="160" y="20" width="590" height="770" as="geometry" />
        </mxCell>
        <mxCell id="TcImOwWDOge3_Hkxh-xN-4" value="" style="group" vertex="1" connectable="0" parent="1">
          <mxGeometry x="10" y="240" width="120" height="80" as="geometry" />
        </mxCell>
        <mxCell id="TcImOwWDOge3_Hkxh-xN-3" value="" style="rounded=1;whiteSpace=wrap;html=1;fillColor=#1ba1e2;fontColor=#ffffff;strokeColor=#006EAF;" vertex="1" parent="TcImOwWDOge3_Hkxh-xN-4">
          <mxGeometry y="10" width="120" height="60" as="geometry" />
        </mxCell>
        <mxCell id="TcImOwWDOge3_Hkxh-xN-2" value="FrontEnd" style="text;html=1;align=center;verticalAlign=middle;whiteSpace=wrap;rounded=0;" vertex="1" parent="TcImOwWDOge3_Hkxh-xN-4">
          <mxGeometry x="5" width="110" height="80" as="geometry" />
        </mxCell>
        <mxCell id="TcImOwWDOge3_Hkxh-xN-6" value="" style="endArrow=classic;startArrow=classic;html=1;rounded=0;exitX=1;exitY=0.5;exitDx=0;exitDy=0;entryX=0;entryY=0.5;entryDx=0;entryDy=0;" edge="1" parent="1" source="TcImOwWDOge3_Hkxh-xN-3" target="TcImOwWDOge3_Hkxh-xN-8">
          <mxGeometry width="50" height="50" relative="1" as="geometry">
            <mxPoint x="390" y="340" as="sourcePoint" />
            <mxPoint x="440" y="290" as="targetPoint" />
          </mxGeometry>
        </mxCell>
        <mxCell id="TcImOwWDOge3_Hkxh-xN-7" value="Backend" style="text;html=1;align=center;verticalAlign=middle;whiteSpace=wrap;rounded=0;" vertex="1" parent="1">
          <mxGeometry x="170" y="30" width="70" height="60" as="geometry" />
        </mxCell>
        <mxCell id="TcImOwWDOge3_Hkxh-xN-8" value="" style="rounded=1;whiteSpace=wrap;html=1;" vertex="1" parent="1">
          <mxGeometry x="190" y="250" width="120" height="60" as="geometry" />
        </mxCell>
        <mxCell id="TcImOwWDOge3_Hkxh-xN-9" value="Gateway API" style="text;html=1;align=center;verticalAlign=middle;whiteSpace=wrap;rounded=0;" vertex="1" parent="1">
          <mxGeometry x="205" y="250" width="90" height="60" as="geometry" />
        </mxCell>
        <mxCell id="TcImOwWDOge3_Hkxh-xN-15" value="" style="endArrow=classic;startArrow=classic;html=1;rounded=0;exitX=0.5;exitY=0;exitDx=0;exitDy=0;entryX=0.5;entryY=1;entryDx=0;entryDy=0;" edge="1" parent="1" source="TcImOwWDOge3_Hkxh-xN-9" target="TcImOwWDOge3_Hkxh-xN-14">
          <mxGeometry width="50" height="50" relative="1" as="geometry">
            <mxPoint x="240" y="220" as="sourcePoint" />
            <mxPoint x="250" y="180" as="targetPoint" />
          </mxGeometry>
        </mxCell>
        <mxCell id="TcImOwWDOge3_Hkxh-xN-18" value="" style="group" vertex="1" connectable="0" parent="1">
          <mxGeometry x="354" y="80" width="60" height="60" as="geometry" />
        </mxCell>
        <mxCell id="TcImOwWDOge3_Hkxh-xN-16" value="" style="strokeWidth=2;html=1;shape=mxgraph.flowchart.database;whiteSpace=wrap;" vertex="1" parent="TcImOwWDOge3_Hkxh-xN-18">
          <mxGeometry width="60" height="60" as="geometry" />
        </mxCell>
        <mxCell id="TcImOwWDOge3_Hkxh-xN-17" value="DB" style="text;html=1;align=center;verticalAlign=middle;whiteSpace=wrap;rounded=0;" vertex="1" parent="TcImOwWDOge3_Hkxh-xN-18">
          <mxGeometry y="25" width="60" height="30" as="geometry" />
        </mxCell>
        <mxCell id="TcImOwWDOge3_Hkxh-xN-19" value="" style="group" vertex="1" connectable="0" parent="1">
          <mxGeometry x="190" y="80" width="120" height="60" as="geometry" />
        </mxCell>
        <mxCell id="TcImOwWDOge3_Hkxh-xN-13" value="" style="rounded=1;whiteSpace=wrap;html=1;" vertex="1" parent="TcImOwWDOge3_Hkxh-xN-19">
          <mxGeometry width="120" height="60" as="geometry" />
        </mxCell>
        <mxCell id="TcImOwWDOge3_Hkxh-xN-14" value="UserService" style="text;html=1;align=center;verticalAlign=middle;whiteSpace=wrap;rounded=0;" vertex="1" parent="TcImOwWDOge3_Hkxh-xN-19">
          <mxGeometry x="30" width="60" height="60" as="geometry" />
        </mxCell>
        <mxCell id="TcImOwWDOge3_Hkxh-xN-20" value="" style="endArrow=classic;startArrow=classic;html=1;rounded=0;exitX=1;exitY=0.5;exitDx=0;exitDy=0;entryX=0;entryY=0.25;entryDx=0;entryDy=0;" edge="1" parent="1" source="TcImOwWDOge3_Hkxh-xN-13" target="TcImOwWDOge3_Hkxh-xN-17">
          <mxGeometry width="50" height="50" relative="1" as="geometry">
            <mxPoint x="310" y="190" as="sourcePoint" />
            <mxPoint x="340" y="120" as="targetPoint" />
          </mxGeometry>
        </mxCell>
        <mxCell id="TcImOwWDOge3_Hkxh-xN-25" value="" style="group" vertex="1" connectable="0" parent="1">
          <mxGeometry x="190" y="400" width="120" height="60" as="geometry" />
        </mxCell>
        <mxCell id="TcImOwWDOge3_Hkxh-xN-22" value="" style="rounded=1;whiteSpace=wrap;html=1;" vertex="1" parent="TcImOwWDOge3_Hkxh-xN-25">
          <mxGeometry width="120" height="60" as="geometry" />
        </mxCell>
        <mxCell id="TcImOwWDOge3_Hkxh-xN-23" value="Server Discovery" style="text;html=1;align=center;verticalAlign=middle;whiteSpace=wrap;rounded=0;" vertex="1" parent="TcImOwWDOge3_Hkxh-xN-25">
          <mxGeometry x="5" width="110" height="60" as="geometry" />
        </mxCell>
        <mxCell id="TcImOwWDOge3_Hkxh-xN-26" value="" style="endArrow=classic;startArrow=classic;html=1;rounded=0;entryX=0.5;entryY=1;entryDx=0;entryDy=0;exitX=0.5;exitY=0;exitDx=0;exitDy=0;" edge="1" parent="1" source="TcImOwWDOge3_Hkxh-xN-23" target="TcImOwWDOge3_Hkxh-xN-9">
          <mxGeometry width="50" height="50" relative="1" as="geometry">
            <mxPoint x="220" y="380" as="sourcePoint" />
            <mxPoint x="270" y="330" as="targetPoint" />
          </mxGeometry>
        </mxCell>
        <mxCell id="TcImOwWDOge3_Hkxh-xN-29" value="" style="rounded=0;whiteSpace=wrap;html=1;" vertex="1" parent="1">
          <mxGeometry x="350" y="240" width="350" height="510" as="geometry" />
        </mxCell>
        <mxCell id="TcImOwWDOge3_Hkxh-xN-30" value="" style="endArrow=classic;startArrow=classic;html=1;rounded=0;exitX=1;exitY=0.5;exitDx=0;exitDy=0;entryX=-0.008;entryY=0.147;entryDx=0;entryDy=0;entryPerimeter=0;" edge="1" parent="1" source="TcImOwWDOge3_Hkxh-xN-8" target="TcImOwWDOge3_Hkxh-xN-29">
          <mxGeometry width="50" height="50" relative="1" as="geometry">
            <mxPoint x="310" y="320" as="sourcePoint" />
            <mxPoint x="360" y="270" as="targetPoint" />
          </mxGeometry>
        </mxCell>
        <mxCell id="TcImOwWDOge3_Hkxh-xN-31" value="" style="endArrow=classic;startArrow=classic;html=1;rounded=0;exitX=1;exitY=0.5;exitDx=0;exitDy=0;entryX=0.003;entryY=0.725;entryDx=0;entryDy=0;entryPerimeter=0;" edge="1" parent="1" source="TcImOwWDOge3_Hkxh-xN-22" target="TcImOwWDOge3_Hkxh-xN-29">
          <mxGeometry width="50" height="50" relative="1" as="geometry">
            <mxPoint x="310" y="460" as="sourcePoint" />
            <mxPoint x="360" y="410" as="targetPoint" />
          </mxGeometry>
        </mxCell>
        <mxCell id="TcImOwWDOge3_Hkxh-xN-40" value="" style="group" vertex="1" connectable="0" parent="1">
          <mxGeometry x="380" y="270" width="250" height="70" as="geometry" />
        </mxCell>
        <mxCell id="TcImOwWDOge3_Hkxh-xN-33" value="" style="rounded=1;whiteSpace=wrap;html=1;" vertex="1" parent="TcImOwWDOge3_Hkxh-xN-40">
          <mxGeometry width="120" height="60" as="geometry" />
        </mxCell>
        <mxCell id="TcImOwWDOge3_Hkxh-xN-34" value="" style="group" vertex="1" connectable="0" parent="TcImOwWDOge3_Hkxh-xN-40">
          <mxGeometry x="190" width="60" height="60" as="geometry" />
        </mxCell>
        <mxCell id="TcImOwWDOge3_Hkxh-xN-35" value="" style="strokeWidth=2;html=1;shape=mxgraph.flowchart.database;whiteSpace=wrap;" vertex="1" parent="TcImOwWDOge3_Hkxh-xN-34">
          <mxGeometry width="60" height="60" as="geometry" />
        </mxCell>
        <mxCell id="TcImOwWDOge3_Hkxh-xN-36" value="DB" style="text;html=1;align=center;verticalAlign=middle;whiteSpace=wrap;rounded=0;" vertex="1" parent="TcImOwWDOge3_Hkxh-xN-34">
          <mxGeometry y="25" width="60" height="30" as="geometry" />
        </mxCell>
        <mxCell id="TcImOwWDOge3_Hkxh-xN-37" value="" style="endArrow=classic;html=1;rounded=0;exitX=1;exitY=0.5;exitDx=0;exitDy=0;" edge="1" parent="TcImOwWDOge3_Hkxh-xN-40" source="TcImOwWDOge3_Hkxh-xN-33">
          <mxGeometry width="50" height="50" relative="1" as="geometry">
            <mxPoint x="130" y="60" as="sourcePoint" />
            <mxPoint x="190" y="30" as="targetPoint" />
          </mxGeometry>
        </mxCell>
        <mxCell id="TcImOwWDOge3_Hkxh-xN-72" value="ContentService" style="text;html=1;align=center;verticalAlign=middle;whiteSpace=wrap;rounded=0;" vertex="1" parent="TcImOwWDOge3_Hkxh-xN-40">
          <mxGeometry x="5" width="110" height="60" as="geometry" />
        </mxCell>
        <mxCell id="TcImOwWDOge3_Hkxh-xN-42" value="" style="group" vertex="1" connectable="0" parent="1">
          <mxGeometry x="380" y="360" width="250" height="60" as="geometry" />
        </mxCell>
        <mxCell id="TcImOwWDOge3_Hkxh-xN-43" value="" style="rounded=1;whiteSpace=wrap;html=1;" vertex="1" parent="TcImOwWDOge3_Hkxh-xN-42">
          <mxGeometry width="120" height="60" as="geometry" />
        </mxCell>
        <mxCell id="TcImOwWDOge3_Hkxh-xN-44" value="" style="group" vertex="1" connectable="0" parent="TcImOwWDOge3_Hkxh-xN-42">
          <mxGeometry x="190" width="60" height="60" as="geometry" />
        </mxCell>
        <mxCell id="TcImOwWDOge3_Hkxh-xN-45" value="" style="strokeWidth=2;html=1;shape=mxgraph.flowchart.database;whiteSpace=wrap;" vertex="1" parent="TcImOwWDOge3_Hkxh-xN-44">
          <mxGeometry width="60" height="60" as="geometry" />
        </mxCell>
        <mxCell id="TcImOwWDOge3_Hkxh-xN-46" value="DB" style="text;html=1;align=center;verticalAlign=middle;whiteSpace=wrap;rounded=0;" vertex="1" parent="TcImOwWDOge3_Hkxh-xN-44">
          <mxGeometry y="25" width="60" height="30" as="geometry" />
        </mxCell>
        <mxCell id="TcImOwWDOge3_Hkxh-xN-47" value="" style="endArrow=classic;html=1;rounded=0;exitX=1;exitY=0.5;exitDx=0;exitDy=0;" edge="1" parent="TcImOwWDOge3_Hkxh-xN-42" source="TcImOwWDOge3_Hkxh-xN-43">
          <mxGeometry width="50" height="50" relative="1" as="geometry">
            <mxPoint x="130" y="60" as="sourcePoint" />
            <mxPoint x="190" y="30" as="targetPoint" />
          </mxGeometry>
        </mxCell>
        <mxCell id="TcImOwWDOge3_Hkxh-xN-73" value="FacultyService" style="text;html=1;align=center;verticalAlign=middle;whiteSpace=wrap;rounded=0;" vertex="1" parent="TcImOwWDOge3_Hkxh-xN-42">
          <mxGeometry x="5" width="110" height="60" as="geometry" />
        </mxCell>
        <mxCell id="TcImOwWDOge3_Hkxh-xN-48" value="" style="group" vertex="1" connectable="0" parent="1">
          <mxGeometry x="380" y="450" width="250" height="60" as="geometry" />
        </mxCell>
        <mxCell id="TcImOwWDOge3_Hkxh-xN-49" value="" style="rounded=1;whiteSpace=wrap;html=1;" vertex="1" parent="TcImOwWDOge3_Hkxh-xN-48">
          <mxGeometry width="120" height="60" as="geometry" />
        </mxCell>
        <mxCell id="TcImOwWDOge3_Hkxh-xN-50" value="" style="group" vertex="1" connectable="0" parent="TcImOwWDOge3_Hkxh-xN-48">
          <mxGeometry x="190" width="60" height="60" as="geometry" />
        </mxCell>
        <mxCell id="TcImOwWDOge3_Hkxh-xN-51" value="" style="strokeWidth=2;html=1;shape=mxgraph.flowchart.database;whiteSpace=wrap;" vertex="1" parent="TcImOwWDOge3_Hkxh-xN-50">
          <mxGeometry width="60" height="60" as="geometry" />
        </mxCell>
        <mxCell id="TcImOwWDOge3_Hkxh-xN-52" value="DB" style="text;html=1;align=center;verticalAlign=middle;whiteSpace=wrap;rounded=0;" vertex="1" parent="TcImOwWDOge3_Hkxh-xN-50">
          <mxGeometry y="25" width="60" height="30" as="geometry" />
        </mxCell>
        <mxCell id="TcImOwWDOge3_Hkxh-xN-53" value="" style="endArrow=classic;html=1;rounded=0;exitX=1;exitY=0.5;exitDx=0;exitDy=0;" edge="1" parent="TcImOwWDOge3_Hkxh-xN-48" source="TcImOwWDOge3_Hkxh-xN-49">
          <mxGeometry width="50" height="50" relative="1" as="geometry">
            <mxPoint x="130" y="60" as="sourcePoint" />
            <mxPoint x="190" y="30" as="targetPoint" />
          </mxGeometry>
        </mxCell>
        <mxCell id="TcImOwWDOge3_Hkxh-xN-74" value="QuizService" style="text;html=1;align=center;verticalAlign=middle;whiteSpace=wrap;rounded=0;" vertex="1" parent="TcImOwWDOge3_Hkxh-xN-48">
          <mxGeometry x="10" width="100" height="60" as="geometry" />
        </mxCell>
        <mxCell id="TcImOwWDOge3_Hkxh-xN-54" value="" style="group" vertex="1" connectable="0" parent="1">
          <mxGeometry x="380" y="550" width="250" height="60" as="geometry" />
        </mxCell>
        <mxCell id="TcImOwWDOge3_Hkxh-xN-55" value="" style="rounded=1;whiteSpace=wrap;html=1;" vertex="1" parent="TcImOwWDOge3_Hkxh-xN-54">
          <mxGeometry width="120" height="60" as="geometry" />
        </mxCell>
        <mxCell id="TcImOwWDOge3_Hkxh-xN-56" value="" style="group" vertex="1" connectable="0" parent="TcImOwWDOge3_Hkxh-xN-54">
          <mxGeometry x="190" width="60" height="60" as="geometry" />
        </mxCell>
        <mxCell id="TcImOwWDOge3_Hkxh-xN-57" value="" style="strokeWidth=2;html=1;shape=mxgraph.flowchart.database;whiteSpace=wrap;" vertex="1" parent="TcImOwWDOge3_Hkxh-xN-56">
          <mxGeometry width="60" height="60" as="geometry" />
        </mxCell>
        <mxCell id="TcImOwWDOge3_Hkxh-xN-58" value="DB" style="text;html=1;align=center;verticalAlign=middle;whiteSpace=wrap;rounded=0;" vertex="1" parent="TcImOwWDOge3_Hkxh-xN-56">
          <mxGeometry y="25" width="60" height="30" as="geometry" />
        </mxCell>
        <mxCell id="TcImOwWDOge3_Hkxh-xN-59" value="" style="endArrow=classic;html=1;rounded=0;exitX=1;exitY=0.5;exitDx=0;exitDy=0;" edge="1" parent="TcImOwWDOge3_Hkxh-xN-54" source="TcImOwWDOge3_Hkxh-xN-55">
          <mxGeometry width="50" height="50" relative="1" as="geometry">
            <mxPoint x="130" y="60" as="sourcePoint" />
            <mxPoint x="190" y="30" as="targetPoint" />
          </mxGeometry>
        </mxCell>
        <mxCell id="TcImOwWDOge3_Hkxh-xN-75" value="CommunityService" style="text;html=1;align=center;verticalAlign=middle;whiteSpace=wrap;rounded=0;" vertex="1" parent="TcImOwWDOge3_Hkxh-xN-54">
          <mxGeometry width="120" height="60" as="geometry" />
        </mxCell>
        <mxCell id="TcImOwWDOge3_Hkxh-xN-66" value="" style="group" vertex="1" connectable="0" parent="1">
          <mxGeometry x="380" y="650" width="250" height="60" as="geometry" />
        </mxCell>
        <mxCell id="TcImOwWDOge3_Hkxh-xN-67" value="" style="rounded=1;whiteSpace=wrap;html=1;" vertex="1" parent="TcImOwWDOge3_Hkxh-xN-66">
          <mxGeometry width="120" height="60" as="geometry" />
        </mxCell>
        <mxCell id="TcImOwWDOge3_Hkxh-xN-68" value="" style="group" vertex="1" connectable="0" parent="TcImOwWDOge3_Hkxh-xN-66">
          <mxGeometry x="190" width="60" height="60" as="geometry" />
        </mxCell>
        <mxCell id="TcImOwWDOge3_Hkxh-xN-69" value="" style="strokeWidth=2;html=1;shape=mxgraph.flowchart.database;whiteSpace=wrap;" vertex="1" parent="TcImOwWDOge3_Hkxh-xN-68">
          <mxGeometry width="60" height="60" as="geometry" />
        </mxCell>
        <mxCell id="TcImOwWDOge3_Hkxh-xN-70" value="DB" style="text;html=1;align=center;verticalAlign=middle;whiteSpace=wrap;rounded=0;" vertex="1" parent="TcImOwWDOge3_Hkxh-xN-68">
          <mxGeometry y="25" width="60" height="30" as="geometry" />
        </mxCell>
        <mxCell id="TcImOwWDOge3_Hkxh-xN-71" value="" style="endArrow=classic;html=1;rounded=0;exitX=1;exitY=0.5;exitDx=0;exitDy=0;" edge="1" parent="TcImOwWDOge3_Hkxh-xN-66" source="TcImOwWDOge3_Hkxh-xN-67">
          <mxGeometry width="50" height="50" relative="1" as="geometry">
            <mxPoint x="130" y="60" as="sourcePoint" />
            <mxPoint x="190" y="30" as="targetPoint" />
          </mxGeometry>
        </mxCell>
        <mxCell id="TcImOwWDOge3_Hkxh-xN-76" value="NotificationService" style="text;html=1;align=center;verticalAlign=middle;whiteSpace=wrap;rounded=0;" vertex="1" parent="TcImOwWDOge3_Hkxh-xN-66">
          <mxGeometry width="120" height="60" as="geometry" />
        </mxCell>
      </root>
    </mxGraphModel>
  </diagram>
</mxfile>
